<?xml version="1.0" encoding="utf-8"?>
<!-- Generator: Adobe Illustrator 22.0.1, SVG Export Plug-In . SVG Version: 6.00 Build 0)  -->
<svg version="1.1" id="Layer_6" xmlns="http://www.w3.org/2000/svg" xmlns:xlink="http://www.w3.org/1999/xlink" x="0px" y="0px"
	 viewBox="0 0 360 360" style="enable-background:new 0 0 360 360;" xml:space="preserve">
<g>
	<path d="M277,260.8c-0.7,0.5-1.4,3.8-1.4,8.3c0,0,0,0,0,0c0,0,0,0,0,0c0,4.5,0.7,7.8,1.4,8.3c0.7,0.5,20.7,0,20.7-0.8
		c0-0.3-5.4-2.5-5.4-3.2c-0.1-1.4,28.3-3.8,28.3-4.4c0,0,0,0,0,0c0,0,0,0,0,0c0-0.5-28.4-3-28.3-4.4c0.1-0.7,5.5-2.8,5.4-3.2
		C297.7,260.8,277.7,260.3,277,260.8z"/>
	<path d="M95.5,195.2c-0.8-4.2-1.2-8.5-1.2-13.4c0-46.7,37.7-82.4,82.6-82.4c46.2,0,82.9,36.5,82.9,81.6c0,20-7.9,37.2-21,51.9
		c4.3,4.4,9.4,8.9,14.2,12c16.1-17.5,25.7-39.2,25.7-63.4c0-59.4-46.9-99.2-101.5-99.2c-56.4,0-101.7,42.1-101.7,98.4
		c0,7.3,0.8,14.4,2.4,21.1C82.6,200.4,95.5,195.2,95.5,195.2z"/>
	<path d="M272.5,269.1C272.5,269.1,272.5,269.1,272.5,269.1c0-3.6,0.4-6.7,0.9-8.6c-10.5-0.3-18.4-4.1-25.3-10.2
		c-4.7-4.1-13.8-12.2-13.8-12.2c-36.7-31.6-62-41.3-96.1-41.3c-14.3,0-26.5,2-40,6.4c-5.6,1.9-10.8,3.5-17.6,6.6
		c13.2,40.6,53.4,67.9,96.9,67.9c20.1,0,40-5.4,56.6-16.3c11.8,11,21.9,15.9,39.3,16.3C272.9,275.7,272.5,272.7,272.5,269.1
		C272.5,269.1,272.5,269.1,272.5,269.1z M105.9,219.3c10.5-4.3,19.1-5.4,29.1-5.4c18.1,0,35.1,4.2,47.5,9.6
		c-8.8,4.1-14.8,12-14.8,21.1c0,6.1,2.7,11.7,7.2,16C139.8,259.3,115,237.4,105.9,219.3z"/>
	<circle cx="133.7" cy="228.5" r="10"/>
</g>
</svg>
